# xmcd
#
# Track frame offsets:
#	150
#	19755
#	41052
#	56067
#
# Disc length: 1008 seconds
#
# Revision: 0
# Processed by: cddbd v1.4PL0 Copyright (c) Steve Scherf et al.
# Submitted via: EasyCDDAExtractor 4.6.0.1
#
DISCID=2f03ee04
DTITLE=Tina Turner - On Silent Wings [CD 2)
DYEAR=1996
DGENRE=Pop
TTITLE0=On Silent Wings
TTITLE1=Whatever You Want
TTITLE2=Do Something
TTITLE3=On Silent Wings (Alternative Version)
EXTD=
EXTT0=
EXTT1=
EXTT2=
EXTT3=
PLAYORDER=
